<svg id="Capa_1" enable-background="new 0 0 512 512" height="512" viewBox="0 0 512 512" width="512" xmlns="http://www.w3.org/2000/svg"><g><path d="m497 0h-482c-8.284 0-15 6.716-15 15v482c0 8.284 6.716 15 15 15h482c8.284 0 15-6.716 15-15v-482c0-8.284-6.716-15-15-15zm-75.375 436.996c0 8.284-6.716 15-15 15h-301.25c-8.284 0-15-6.716-15-15v-361.992c0-8.284 6.716-15 15-15h271.248c8.284 0 15 6.716 15 15v60.25c0 8.284-6.716 15-15 15h-195.998v60.498h195.998c8.284 0 15 6.716 15 15v60.25c0 8.284-6.716 15-15 15h-195.998v60.744h226c8.284 0 15 6.716 15 15z"/><path d="m150.625 225.752v-90.498c0-8.284 6.716-15 15-15h195.998v-30.25h-241.248v331.992h271.25v-30.25h-226c-8.284 0-15-6.716-15-15v-90.744c0-8.284 6.716-15 15-15h195.998v-30.25h-195.998c-8.284 0-15-6.716-15-15z"/></g></svg>